<?xml version="1.0" encoding="iso-8859-1"?>
<!-- Generator: Adobe Illustrator 19.0.0, SVG Export Plug-In . SVG Version: 6.00 Build 0)  -->
<svg version="1.1" id="Capa_1" xmlns="http://www.w3.org/2000/svg" xmlns:xlink="http://www.w3.org/1999/xlink" x="0px" y="0px"
	 viewBox="0 0 512.003 512.003" style="enable-background:new 0 0 512.003 512.003;" xml:space="preserve">
<path style="fill:#434242;" d="M493.455,401.675c-4.429-22.088-21.31-39.575-43.235-44.772l-198.882-47.078L61.2,356.614
	c-22.223,6.735-38.873,25.23-43.235,48.039l-8.359,41.794c156.511,71.386,336.273,71.386,492.784,0L493.455,401.675z"/>
<path style="fill:#343433;" d="M255.998,509.619c-85.413,0-170.817-18.149-250.379-54.428c-4.054-1.854-6.312-6.255-5.428-10.626
	l8.359-41.794c5.025-26.316,24.144-47.559,49.874-55.351l190.628-46.924c1.47-0.375,3.026-0.384,4.506-0.019l198.882,47.078
	c25.49,6.034,45.291,26.537,50.441,52.228c0,0,0,0,0,0.01l8.935,44.772c0.874,4.372-1.384,8.762-5.428,10.617
	C426.815,491.479,341.402,509.619,255.998,509.619z M20.53,440.817c150.084,66.121,320.853,66.121,470.936,0l-7.427-37.259
	c-3.68-18.351-17.813-32.993-36.029-37.307l-196.624-46.55l-187.89,46.242c-18.38,5.582-32.398,21.156-36.087,40.516L20.53,440.817z
	"/>
<path style="fill:#936F5C;" d="M178.8,259.768h153.725v86.47c-22.213,16.208-49.432,24.039-76.862,22.098
	c-27.411,1.787-54.592-6.024-76.862-22.098V259.768z"/>
<g>
	<rect x="226.839" y="425.531" style="fill:#343433;" width="57.647" height="14.412"/>
	<rect x="226.839" y="454.354" style="fill:#343433;" width="57.647" height="14.412"/>
</g>
<g>
	<rect x="169.192" y="285.997" style="fill:#333333;" width="19.216" height="60.251"/>
	<rect x="322.917" y="285.997" style="fill:#333333;" width="19.216" height="60.251"/>
</g>
<rect x="246.15" y="368.365" style="fill:#343433;" width="19.216" height="130.378"/>
<path style="fill:#AD8064;" d="M354.43,143.417l1.922-38.431c-0.336-20.782-8.541-40.66-22.963-55.629
	c-19.417-22.943-47.684-36.538-77.727-37.374c-30.092,0.913-58.367,14.613-77.727,37.663c-14.527,14.911-22.78,34.819-23.059,55.629
	l2.018,38.431c-16.91-5.092-26.421,0.769-19.216,41.41c2.69,15.372,8.551,37.182,21.906,38.431
	c0.961,11.808,2.594,23.549,4.9,35.165c3.555,19.216,21.521,37.278,49.288,58.223c12.317,8.253,27.142,11.923,41.89,10.376
	c14.902,1.432,29.823-2.412,42.178-10.857c27.767-20.945,45.733-39.392,49.192-58.223c2.21-11.529,3.747-23.174,4.612-34.876
	c13.451-1.057,19.216-22.867,21.906-38.431C380.756,144.186,371.244,138.325,354.43,143.417z"/>
<path style="fill:#A0765F;" d="M351.644,223.354c13.451-1.057,19.216-22.867,21.906-38.431c7.206-40.641-2.306-46.502-19.216-41.41
	l1.922-38.431c-0.336-20.782-8.541-40.66-22.963-55.629c-19.379-22.953-47.607-36.577-77.631-37.47
	c-10.492,0.115-20.878,2.008-30.745,5.573c-10.184,79.649-20.657,171.403-20.657,196.191v94.829l9.608,7.59
	c12.317,8.253,27.142,11.923,41.89,10.376c14.777,1.643,29.659-1.922,42.082-10.088c27.767-20.945,45.733-39.392,49.192-58.223
	C349.242,246.711,350.779,235.066,351.644,223.354z"/>
<path style="fill:#333333;" d="M249.1,337.264c-14.412,0-28.622-4.266-40.67-12.336c-25.24-19.023-48.817-39.747-53.391-64.459
	c-1.922-9.685-3.411-19.658-4.439-29.659c-16.112-8.138-20.724-34.521-22.386-44.033c-4.737-26.71-3.026-41.429,5.707-49.202
	c3.93-3.497,8.503-4.775,12.769-4.996l-1.403-26.796c0.307-24,9.454-46.089,25.768-62.835
	c20.628-24.596,51.527-39.575,84.318-40.564c33.281,0.913,64.199,15.776,85.356,40.776c15.757,16.324,24.865,38.393,25.23,61.682
	l-1.364,27.45c4.227,0.221,8.772,1.499,12.682,4.967c8.753,7.773,10.473,22.53,5.726,49.346c-1.643,9.521-6.216,36.01-22.338,44.052
	c-0.942,9.838-2.344,19.696-4.199,29.381c-3.622,19.686-19.427,38.873-52.843,64.084c-14.277,9.771-31.168,14.239-47.924,12.836
	C253.5,337.168,251.3,337.264,249.1,337.264z M148.035,151.766c-0.98,0-1.345,0.173-1.355,0.173
	c-0.029,0.029-4.41,4.016,0.461,31.504c4.122,23.568,10.521,30.284,13.336,30.543c4.641,0.432,8.301,4.141,8.676,8.791
	c0.932,11.424,2.527,22.895,4.756,34.069c2.719,14.681,16.362,30.332,45.647,52.43c9.982,6.658,22.626,9.742,35.097,8.493
	c0.644-0.077,1.278-0.067,1.912-0.01c12.634,1.153,25.374-2.066,35.837-9.224c28.478-21.502,42.524-37.634,45.166-52.036
	c2.143-11.193,3.641-22.559,4.477-33.848c0.346-4.727,4.103-8.503,8.83-8.868c2.988-0.231,9.108-6.918,13.192-30.486
	c4.881-27.574,0.5-31.629,0.452-31.658l0,0c0,0-1.662-0.721-7.321,0.99c-3.007,0.903-6.235,0.298-8.695-1.624
	c-2.469-1.931-3.833-4.929-3.689-8.051l1.922-38.431c-0.298-17.784-7.494-35.222-20.272-48.481
	c-18.053-21.291-43.812-33.675-71.079-34.434c-26.767,0.826-52.516,13.307-70.099,34.233c-13.336,13.73-20.561,31.149-20.811,49.586
	l1.998,37.797c0.163,3.123-1.201,6.13-3.661,8.061c-2.46,1.941-5.707,2.546-8.695,1.643
	C151.052,151.987,149.15,151.766,148.035,151.766z"/>
<path style="fill:#343433;" d="M255.758,377.944c-44.254,0-89.064-14.162-89.064-41.217h19.216c0,7.465,24.654,22.002,69.849,22.002
	s69.849-14.537,69.849-22.002h19.216C344.822,363.782,300.021,377.944,255.758,377.944z"/>
<g>
	<path style="fill:#333333;" d="M255.662,233.154c-6.62,0-10.213-1.777-13.374-3.344c-2.834-1.403-5.284-2.613-10.742-2.613
		c-2.652,0-4.804-2.152-4.804-4.804s2.152-4.804,4.804-4.804c7.705,0,11.75,1.998,15.007,3.613c2.748,1.364,4.737,2.344,9.108,2.344
		c4.343,0,6.274-0.98,8.935-2.325c3.209-1.614,7.196-3.632,14.988-3.632c2.652,0,4.804,2.152,4.804,4.804s-2.152,4.804-4.804,4.804
		c-5.496,0-7.878,1.201-10.645,2.604C265.827,231.377,262.291,233.154,255.662,233.154z"/>
	<path style="fill:#333333;" d="M239.233,171.184c-1.518,0-3.017-0.721-3.949-2.066c-1.518-2.181-0.97-5.179,1.201-6.687
		c11.462-7.955,26.873-7.955,38.345,0c2.181,1.508,2.719,4.506,1.211,6.677c-1.528,2.191-4.516,2.719-6.687,1.211
		c-8.195-5.678-19.206-5.678-27.382,0C241.135,170.905,240.184,171.184,239.233,171.184z"/>
	<ellipse style="fill:#333333;" cx="211.466" cy="173.23" rx="32.859" ry="25.557"/>
	<ellipse style="fill:#333333;" cx="299.57" cy="173.23" rx="32.859" ry="25.557"/>
</g>
<path style="fill:#444444;" d="M159.584,346.238c17.102,31.225,43.812,43.908,67.255,57.647v-48.039
	c-24.442-8.426-44.955-25.518-57.647-48.039L159.584,346.238z"/>
<path style="fill:#343433;" d="M226.839,413.492c-1.681,0-3.363-0.442-4.852-1.326l-7.629-4.4
	c-21.858-12.519-46.636-26.69-63.191-56.917c-1.163-2.123-1.48-4.602-0.894-6.946l9.608-38.431c0.961-3.814,4.141-6.668,8.032-7.196
	c3.91-0.519,7.725,1.384,9.656,4.804c11.549,20.493,30.159,36.01,52.411,43.677c3.882,1.335,6.476,4.986,6.476,9.079v48.039
	c0,3.44-1.845,6.62-4.833,8.33C230.134,413.07,228.482,413.492,226.839,413.492z M169.845,344.825
	c12.375,20.695,29.823,32.215,47.386,42.438v-24.779c-17.015-7.023-32.013-17.986-43.831-31.898L169.845,344.825z"/>
<path style="fill:#444444;" d="M351.74,346.238c-17.102,31.225-43.908,43.908-67.255,57.647v-48.039
	c24.413-8.484,44.897-25.557,57.647-48.039L351.74,346.238z"/>
<path style="fill:#343433;" d="M284.485,413.492c-1.643,0-3.295-0.423-4.765-1.268c-2.998-1.71-4.842-4.9-4.842-8.34v-48.039
	c0-4.093,2.594-7.734,6.456-9.07c22.213-7.725,40.833-23.241,52.439-43.706c1.941-3.42,5.794-5.284,9.656-4.785
	c3.891,0.538,7.071,3.382,8.023,7.196l9.608,38.431c0.596,2.344,0.269,4.823-0.894,6.946c-16.487,30.101-41.169,44.263-62.95,56.763
	c-2.652,1.518-5.275,3.026-7.859,4.554C287.858,413.051,286.176,413.492,284.485,413.492z M294.093,362.465v24.779
	c17.563-10.242,35.02-21.742,47.395-42.418l-3.574-14.287C326.087,344.432,311.089,355.394,294.093,362.465z"/>
<g>
	<path style="fill:#333333;" d="M284.485,259.768h-57.647c-2.652,0-4.804-2.152-4.804-4.804c0-2.652,2.152-4.804,4.804-4.804h57.647
		c2.652,0,4.804,2.152,4.804,4.804C289.289,257.615,287.147,259.768,284.485,259.768z"/>
	<path style="fill:#333333;" d="M265.27,278.983h-19.216c-2.652,0-4.804-2.152-4.804-4.804s2.152-4.804,4.804-4.804h19.216
		c2.652,0,4.804,2.152,4.804,4.804S267.922,278.983,265.27,278.983z"/>
</g>
<g>
</g>
<g>
</g>
<g>
</g>
<g>
</g>
<g>
</g>
<g>
</g>
<g>
</g>
<g>
</g>
<g>
</g>
<g>
</g>
<g>
</g>
<g>
</g>
<g>
</g>
<g>
</g>
<g>
</g>
</svg>
