<?xml version="1.0" encoding="iso-8859-1"?>
<!-- Generator: Adobe Illustrator 19.0.0, SVG Export Plug-In . SVG Version: 6.00 Build 0)  -->
<svg version="1.1" id="Capa_1" xmlns="http://www.w3.org/2000/svg" xmlns:xlink="http://www.w3.org/1999/xlink" x="0px" y="0px"
	 viewBox="0 0 512 512" style="enable-background:new 0 0 512 512;" xml:space="preserve">
<path style="fill:#434242;" d="M482.784,408.899c-4.227-21.082-20.34-37.772-41.266-42.733l-185.605-37.781L70.217,365.891
	c-21.257,6.355-37.185,24.044-41.266,45.851l-7.978,39.89c149.383,68.135,320.957,68.135,470.34,0L482.784,408.899z"/>
<path style="fill:#333333;" d="M441.518,396.703l-185.605-37.781L70.217,396.428c-21.211,6.428-37.103,24.081-41.266,45.851
	l-2.384,11.738c146.146,65.017,313.007,65.017,459.152,0l-2.934-14.489C478.594,418.409,462.463,401.673,441.518,396.703z"/>
<path style="fill:#EAC8C1;" d="M191.539,273.455h128.383v82.532c-17.781,15.204-40.862,22.751-64.191,21
	c-23.32,1.651-46.355-5.887-64.191-21L191.539,273.455z"/>
<path style="fill:#444444;" d="M187.229,322.699l-9.17,25.218c17.148,23.384,35.489,29.895,59.515,33.655v-16.14
	c-0.183-7.474-5.025-14.03-12.105-16.415C210.778,343.479,197.655,334.447,187.229,322.699z"/>
<path style="fill:#343433;" d="M237.573,390.742c-0.468,0-0.945-0.037-1.421-0.11c-26.603-4.163-46.832-11.857-65.494-37.286
	c-1.816-2.476-2.274-5.686-1.229-8.565l9.17-25.218c1.11-3.035,3.723-5.264,6.896-5.878c3.191-0.587,6.437,0.514,8.574,2.916
	c9.409,10.592,21.376,18.836,34.618,23.824c10.39,3.503,17.763,13.499,18.038,24.76v16.378c0,2.678-1.174,5.227-3.21,6.969
	C241.865,389.972,239.746,390.742,237.573,390.742z M188.393,346.322c11.72,14.471,23.907,20.615,40.01,24.228v-5.117
	c-0.092-3.375-2.448-6.575-5.869-7.73c-11.591-4.365-22.256-10.647-31.536-18.533L188.393,346.322z"/>
<path style="fill:#F6D4CA;" d="M351.1,148.741V130.4c0-68.226-34.48-86.475-94.728-86.567
	c-60.248-0.092-95.278,17.515-95.278,86.383v18.34c-17.24,0-20.541,29.345-14.947,51.078c4.952,19.074,13.847,34.938,23.567,33.746
	l6.052,30.445c1.651,8.308,5.741,15.938,11.738,21.917c9.17,9.17,23.384,23.659,32.554,33.38c5.401,5.814,12.967,9.133,20.908,9.17
	h29.895c7.951,0.009,15.534-3.32,20.908-9.17c9.17-9.72,23.292-24.118,32.554-33.38c5.951-6.007,10.005-13.627,11.646-21.917
	l5.961-30.262c9.72,1.192,18.34-14.672,23.659-33.746C371.275,178.085,367.882,148.741,351.1,148.741z"/>
<path style="fill:#EAC8C1;" d="M351.1,148.741V130.4c0-68.226-34.48-86.475-94.728-86.567c-5.686,0-10.913,0-16.048,0.459
	c-18.139,57.213-28.052,116.709-29.436,176.71c0,6.969,1.926,48.602,4.035,92.711l5.594,5.777c5.401,5.814,12.967,9.133,20.908,9.17
	h29.895c7.951,0.009,15.534-3.32,20.908-9.17c9.17-9.72,23.292-24.118,32.554-33.38c5.951-6.007,10.005-13.627,11.646-21.917
	l5.502-30.628c9.72,1.192,18.34-14.672,23.659-33.746C371.275,178.085,367.882,148.741,351.1,148.741z"/>
<g>
	<path style="fill:#333333;" d="M280.132,276.023c-0.11,0-0.202,0-0.303-0.009c-15.223-0.981-30.674-0.99-45.897,0
		c-2.522,0.266-4.704-1.751-4.869-4.283c-0.165-2.522,1.752-4.713,4.282-4.869c15.617-1,31.463-1,47.08,0
		c2.522,0.165,4.438,2.348,4.282,4.869C284.534,274.152,282.516,276.023,280.132,276.023z"/>
	<path style="fill:#333333;" d="M265.359,294.088h-18.34c-2.531,0-4.585-2.054-4.585-4.585c0-2.531,2.054-4.585,4.585-4.585h18.34
		c2.531,0,4.585,2.054,4.585,4.585C269.944,292.034,267.89,294.088,265.359,294.088z"/>
	<path style="fill:#333333;" d="M178.425,170.382c21.091-10.546,59.606,1.742,67.218,9.17c14.306,14.306-9.17,34.113-35.03,34.113
		S157.334,180.836,178.425,170.382z"/>
	<path style="fill:#333333;" d="M333.677,170.382c-21.091-10.546-59.606,1.742-67.218,9.17c-14.306,14.306,9.17,34.113,35.03,34.113
		C327.349,213.666,354.768,180.836,333.677,170.382z"/>
	<rect x="237.573" y="181.753" style="fill:#333333;" width="36.681" height="9.17"/>
</g>
<g>
	<rect x="182.368" y="295.372" style="fill:#343433;" width="18.34" height="33.013"/>
	<path style="fill:#343433;" d="M256.005,512c-81.468,0-162.945-17.35-238.838-52.032c-3.888-1.77-6.034-6.006-5.172-10.188
		l8.253-39.89c4.713-25.126,22.971-45.42,47.621-52.784l110.794-23.118l3.741,17.946L72.363,374.86
		c-17.286,5.2-30.656,20.055-34.122,38.57l-6.795,32.848c143.156,63.164,306.01,63.174,449.166-0.027l-6.548-32.71
		c-3.457-18.652-16.809-33.499-34.883-38.854l-109.309-22.742l3.741-17.946l110.042,22.926c25.447,7.51,43.724,27.813,48.409,53.16
		l7.951,39.753c0.834,4.172-1.311,8.372-5.172,10.133C418.951,494.65,337.473,512,256.005,512z"/>
</g>
<path style="fill:#444444;" d="M324.598,322.699l9.17,25.218c-16.873,23.384-35.305,29.895-59.606,33.655v-16.14
	c0.101-7.501,4.97-14.095,12.105-16.415C300.994,343.497,314.153,334.465,324.598,322.699z"/>
<g>
	<path style="fill:#343433;" d="M274.162,390.742c-2.173,0-4.301-0.77-5.97-2.21c-2.036-1.733-3.2-4.282-3.2-6.96v-16.14
		c0.156-11.545,7.556-21.596,18.432-25.136c12.912-4.842,24.915-13.077,34.315-23.677c2.146-2.412,5.42-3.503,8.583-2.916
		c3.173,0.605,5.796,2.843,6.896,5.878l9.17,25.218c1.036,2.861,0.596,6.034-1.183,8.501c-18.395,25.484-38.762,33.187-65.631,37.35
		C275.098,390.706,274.63,390.742,274.162,390.742z M320.829,339.169c-9.289,7.877-19.927,14.15-31.353,18.432
		c-3.778,1.238-6.098,4.383-6.144,7.941v5.025c16.286-3.604,28.538-9.739,40.11-24.209L320.829,339.169z"/>
	<rect x="311.026" y="295.372" style="fill:#343433;" width="18.34" height="33.013"/>
</g>
<path style="fill:#333333;" d="M256.189,252.639c-3.329,0-6.813-1.146-10.17-2.265c-2.898-0.954-5.906-1.953-8.171-1.953
	c-2.531,0-4.585-2.054-4.585-4.585c0-2.531,2.054-4.585,4.585-4.585c3.751,0,7.455,1.229,11.059,2.421
	c2.669,0.89,5.429,1.797,7.281,1.797c1.935,0,4.897-0.954,7.758-1.889c3.54-1.146,7.199-2.329,10.582-2.329
	c2.531,0,4.585,2.054,4.585,4.585c0,2.531-2.054,4.585-4.585,4.585c-1.935,0-4.897,0.954-7.758,1.889
	C263.231,251.447,259.572,252.639,256.189,252.639z"/>
<g>
	<path style="fill:#343433;" d="M251.429,342.406c-14.681,0-28.849-4.998-40.349-14.324c-10.335-7.932-20.486-16.754-29.996-26.08
		c-7.134-7.575-11.976-16.607-14.251-26.383l-5.071-29.583c-10.271-4.182-18.927-17.882-24.494-39.322
		c-4.301-16.699-4.365-40.505,5.621-53.389c2.549-3.292,5.594-5.731,9.023-7.263v-15.846c0-32.582,7.575-55.975,23.164-71.537
		c16.754-16.736,41.697-24.2,80.845-24.2c0.156,0,0.303,0,0.458,0c51.372,0.083,103.889,11.518,103.889,95.737v15.901
		c3.274,1.513,6.199,3.879,8.648,7.052c10.023,12.939,9.895,36.956,5.539,53.802c-6.025,21.623-14.553,35.113-24.558,39.294
		l-4.897,28.996c-2.439,10.271-7.208,19.267-13.939,26.584c-9.812,9.62-19.945,18.377-30.436,26.401
		c-12.692,9.922-28.584,14.957-44.751,14.003C254.391,342.36,252.906,342.406,251.429,342.406z M169.906,228.98
		c4.383,0,8.088,3.173,8.849,7.63l6.052,35.388c1.431,6.098,4.713,12.224,9.381,17.176c8.721,8.547,18.313,16.882,28.244,24.512
		c9.363,7.575,20.871,11.16,32.673,10.234c0.422-0.046,0.871-0.037,1.32-0.009c11.885,0.789,23.613-2.843,33.004-10.179
		c9.996-7.63,19.56-15.901,28.492-24.65c4.273-4.668,7.547-10.839,9.134-17.488l5.841-34.7c0.816-4.824,5.163-8.152,10.161-7.575
		c1.926-0.504,8.391-8.033,13.709-27.107c3.686-14.315,2.669-31.353-2.338-37.818c-1.357-1.751-2.43-1.907-3.32-1.907
		c-5.071,0-9.17-4.108-9.17-9.17v-23.1c0-56.323-23.191-77.305-85.576-77.397c-0.147,0-0.293,0-0.44,0
		c-33.893,0-54.829,5.814-67.869,18.836c-11.967,11.949-17.781,31.105-17.781,58.561v23.109c0,5.062-4.108,9.17-9.17,9.17
		c-1.265,0-2.384,0.348-3.705,2.054c-4.979,6.428-6.043,23.274-2.366,37.57c5.025,19.349,11.848,26.511,13.755,26.933
		C169.163,229.008,169.53,228.98,169.906,228.98z"/>
	<rect x="237.573" y="367.817" style="fill:#343433;" width="36.589" height="18.34"/>
	<path style="fill:#343433;" d="M250.228,0c-17.423,0-28.153,9.17-40.624,25.86h-17.332c-6.3-0.028-12.352,2.485-16.781,6.969
		l-13.48,13.022c-10.362,10.353-16.176,24.411-16.14,39.065v78.222c8.455,5.383,14.553,13.774,17.057,23.476
		c2.201,6.236,5.594,13.297,10.546,13.297c0,0-4.127-42.825,5.686-61.349c1.687-3.109,2.173-6.731,1.376-10.179
		c-4.035-12.49-0.743-26.19,8.528-35.489c10.225-10.472,25.172-14.856,39.432-11.554c13.205,4.769,16.69,9.17,27.511,9.17
		c10.821,0,14.306-4.402,27.511-9.17c14.26-3.356,29.235,1.036,39.432,11.554c9.299,9.28,12.627,22.981,8.62,35.489
		c-0.954,3.54-0.523,7.309,1.192,10.546c9.812,18.34,5.961,61.349,5.686,61.349c4.952,0,8.345-7.061,10.546-13.297
		c2.311-9.473,8.235-17.671,16.506-22.834V85.65C365.864,36.681,286.909,0,250.228,0z"/>
</g>
<g>
	<path style="fill:#444444;" d="M237.298,75.379c-2.714-5.41-4.338-11.298-4.769-17.332c-0.559-6.144-0.092-12.343,1.376-18.34
		c1.486-6.052,4.2-11.738,7.978-16.69c3.787-4.879,8.868-8.602,14.672-10.729c-3.283,4.833-6.162,9.922-8.62,15.223
		c-2.173,4.879-3.897,9.941-5.135,15.131C240.416,53.453,238.582,64.384,237.298,75.379z"/>
	<path style="fill:#444444;" d="M255.822,41.724c0.266-6.841,3.65-13.196,9.17-17.24c2.751-2.091,5.86-3.677,9.17-4.677
		c3.155-1.064,6.511-1.412,9.812-1.009c-5.135,4.31-9.812,7.428-14.306,11.004C264.845,33.526,260.223,37.506,255.822,41.724z"/>
	<path style="fill:#444444;" d="M237.298,75.379c-5.255-2.558-9.766-6.41-13.113-11.188c-3.604-4.842-5.915-10.518-6.694-16.506
		c-0.816-6.08,0.275-12.261,3.118-17.698c2.54-5.044,6.447-9.271,11.279-12.196c-1.953,4.897-3.576,9.922-4.86,15.039
		c-1.11,4.622-1.366,9.409-0.734,14.122C228.137,57.039,231.869,66.677,237.298,75.379z"/>
	<path style="fill:#444444;" d="M235.556,73.362c-7.795-7.061-14.397-13.664-21.642-19.441c-3.586-2.925-7.355-5.621-11.279-8.07
		c-3.851-2.751-8.07-4.86-12.655-7.795c5.282-0.908,10.711-0.468,15.773,1.284c5.062,1.724,9.785,4.328,13.939,7.703
		c4.044,3.42,7.538,7.437,10.362,11.921C232.887,63.32,234.758,68.226,235.556,73.362z"/>
	<path style="fill:#444444;" d="M235.556,73.362c-11.188-3.76-21.091-8.253-31.27-11.646c-5.025-1.706-10.142-3.145-15.314-4.31
		c-5.447-1.027-10.968-1.632-16.506-1.834c5.089-3.301,10.995-5.144,17.057-5.319c6.006-0.055,11.985,0.871,17.698,2.751
		c5.603,1.944,10.913,4.668,15.773,8.07C227.871,64.393,232.126,68.556,235.556,73.362z"/>
	<path style="fill:#444444;" d="M235.556,73.362c-12.004-3.191-24.292-5.245-36.681-6.144c-5.942-0.303-11.894-0.064-17.79,0.734
		c-6.172,0.908-12.297,2.127-18.34,3.668c4.64-4.814,10.362-8.464,16.69-10.637c6.373-2.265,13.141-3.228,19.899-2.843
		c6.685,0.275,13.269,1.733,19.441,4.31C225.083,64.852,230.796,68.575,235.556,73.362z"/>
	<path style="fill:#444444;" d="M274.254,436.96c0-5.062,4.108-9.17,9.17-9.17s9.17,4.108,9.17,9.17c0,5.062-4.108,9.17-9.17,9.17
		S274.254,442.022,274.254,436.96z"/>
	<path style="fill:#444444;" d="M274.254,475.2c0-5.062,4.108-9.17,9.17-9.17s9.17,4.108,9.17,9.17c0,5.062-4.108,9.17-9.17,9.17
		S274.254,480.262,274.254,475.2z"/>
	<rect x="251.328" y="397.162" style="fill:#444444;" width="9.17" height="105.558"/>
</g>
<g>
</g>
<g>
</g>
<g>
</g>
<g>
</g>
<g>
</g>
<g>
</g>
<g>
</g>
<g>
</g>
<g>
</g>
<g>
</g>
<g>
</g>
<g>
</g>
<g>
</g>
<g>
</g>
<g>
</g>
</svg>
