<?xml version="1.0" encoding="iso-8859-1"?>
<!-- Generator: Adobe Illustrator 19.0.0, SVG Export Plug-In . SVG Version: 6.00 Build 0)  -->
<svg version="1.1" id="Capa_1" xmlns="http://www.w3.org/2000/svg" xmlns:xlink="http://www.w3.org/1999/xlink" x="0px" y="0px"
	 viewBox="0 0 512 512" style="enable-background:new 0 0 512 512;" xml:space="preserve">
<path style="fill:#A88064;" d="M471.651,427.771c-2.226-13.446-11.989-24.41-25.09-28.182l-116.352-17.669
	c-12.015-1.767-20.991-11.971-21.203-24.118v-40.197H202.991v40.021c0,12.315-9.02,22.767-21.203,24.56L65.436,399.854
	c-13.137,3.737-22.935,14.71-25.179,28.182l-5.124,30.921c69.74,29.94,144.967,44.986,220.865,44.173
	c75.889,0.76,151.107-14.286,220.865-44.173L471.651,427.771z"/>
<path style="fill:#9F785E;" d="M202.991,317.604v19.613l77.833,80.041c15.867,16.344,41.947,16.821,58.397,1.06
	c9.895-9.365,20.496-20.143,30.303-30.303l-39.314-5.831c-12.112-1.785-21.115-12.139-21.203-24.383v-40.197L202.991,317.604
	L202.991,317.604z"/>
<path style="fill:#B68F80;" d="M174.544,383.421L65.436,399.589c-13.137,3.737-22.935,14.71-25.179,28.182l-5.124,31.186
	c69.74,29.94,144.967,44.986,220.865,44.173c75.889,0.76,151.107-14.286,220.865-44.173l-5.212-31.009
	c-2.226-13.446-11.989-24.41-25.09-28.182l-109.196-16.344c-17.669,44.173-46.028,75.536-81.367,84.37
	C220.66,458.957,192.213,427.594,174.544,383.421z"/>
<path style="fill:#333333;" d="M255.999,476.626c-0.724,0-1.44-0.088-2.147-0.265c-37.008-9.25-68.088-41.09-87.515-89.653
	l16.406-6.555c16.865,42.167,42.812,69.943,73.256,78.513c30.373-8.552,56.285-36.328,73.159-78.513l16.406,6.555
	c-19.436,48.581-50.481,80.43-87.427,89.653C257.439,476.538,256.723,476.626,255.999,476.626z"/>
<path style="fill:#A88064;" d="M362.014,185.085c-3.737-3.817-9.223-5.371-14.4-4.064v-27.299
	c-0.177-47.707-20.938-83.487-91.615-83.487s-91.438,35.338-91.438,83.222v27.387c-5.265-1.387-10.875,0.247-14.577,4.241
	c-10.513,8.305-8.835,24.03-5.742,41.258c3.534,19.524,5.742,29.419,23.412,30.921c2.898,0.318,5.062,2.827,4.947,5.742
	c-0.353,5.265-0.353,10.548,0,15.814c1.679,26.504,15.902,33.13,40.374,58.662c24.596,20.39,60.217,20.39,84.812,0
	c24.472-25.532,38.696-32.335,40.374-58.662c0.53-7.686,0.707-12.898,0.707-16.432c0.071-2.783,2.182-5.08,4.947-5.389
	c15.726-1.59,19.613-11.397,22.882-30.921C370.23,208.938,372.085,193.213,362.014,185.085z"/>
<path style="fill:#9F785E;" d="M367.314,226.166c2.915-17.227,4.771-32.953-5.742-41.258c-3.737-3.817-9.223-5.371-14.4-4.064
	v-27.299c0-45.852-19.436-80.571-84.282-82.957c-44.791,80.041-56.983,159.023-52.389,264.066l2.827,2.915
	c24.596,20.39,60.217,20.39,84.812,0c24.472-25.532,38.696-32.335,40.374-58.662c0.883-13.164,0.707-19.171,0.707-21.556
	C359.452,257.352,363.692,247.634,367.314,226.166z"/>
<path style="fill:#3F3F3F;" d="M255.999,220.423h-8.039c-24.118-26.504-80.306-26.504-80.306-26.504
	c0.866,18.729,6.387,36.955,16.079,53.008c24.755,4.532,49.871-5.831,64.227-26.504"/>
<path style="fill:#333333;" d="M195.217,256.406c-4.311,0-8.667-0.389-13.005-1.184c-2.376-0.433-4.453-1.873-5.707-3.94
	c-10.381-17.201-16.353-36.902-17.28-56.974c-0.106-2.306,0.733-4.55,2.332-6.22c1.59-1.661,3.799-2.606,6.096-2.606
	c2.368,0,56.488,0.309,83.849,26.504h4.497v16.874H252.2C238.356,246.344,217.232,256.406,195.217,256.406z M188.997,239.188
	c17.802,2.014,35.524-4.727,47.504-17.89c-16.088-12.589-43.024-17.254-59.58-18.535
	C178.661,215.52,182.769,227.906,188.997,239.188z"/>
<path style="fill:#3F3F3F;" d="M255.999,220.423h8.039c24.118-26.504,80.306-26.504,80.306-26.504
	c-0.866,18.729-6.387,36.955-16.079,53.008c-24.755,4.532-49.871-5.831-64.228-26.504"/>
<g>
	<path style="fill:#333333;" d="M316.781,256.406c-22.016,0-43.148-10.063-56.983-27.546h-3.799v-16.874h4.488
		c27.37-26.195,81.49-26.504,83.858-26.504c2.306,0,4.514,0.945,6.096,2.606c1.599,1.67,2.43,3.914,2.332,6.22
		c-0.919,20.063-6.9,39.764-17.289,56.974c-1.254,2.067-3.322,3.507-5.707,3.94C325.447,256.018,321.092,256.406,316.781,256.406z
		 M275.479,221.28c11.98,13.181,29.737,19.922,47.512,17.908c6.228-11.264,10.336-23.641,12.077-36.372
		C320.579,203.938,292.477,207.834,275.479,221.28z"/>
	<path style="fill:#333333;" d="M255.292,361.6c-17.06,0-34.119-5.769-48.043-17.316c-0.256-0.212-0.512-0.442-0.742-0.689
		c-5.31-5.539-10.124-10.169-14.436-14.312c-15.593-14.992-26.857-25.824-28.377-49.898c-0.3-4.514-0.362-9.091-0.186-13.641
		c-21.751-3.49-24.772-20.187-27.961-37.821c-2.642-14.727-6.626-36.884,8.437-49.341c3.26-3.313,7.35-5.539,11.741-6.502v-18.623
		c0-61.082,33.739-92.056,100.273-92.056c66.427,0,100.22,31.054,100.449,92.286v18.623c4.276,0.954,8.287,3.083,11.511,6.228
		c13.888,11.617,11.052,31.566,7.289,49.368c-2.933,17.669-7.359,34.093-27.67,37.485c-0.079,3.331-0.283,7.942-0.689,14.02
		c-1.537,23.959-12.262,34.314-28.509,49.968c-4.267,4.126-9.047,8.72-14.312,14.215c-0.23,0.239-0.477,0.468-0.733,0.68
		C289.411,355.822,272.36,361.6,255.292,361.6z M218.902,330.988c21.168,17.263,51.638,17.245,72.779,0
		c5.301-5.504,10.124-10.151,14.445-14.321c15.125-14.595,22.033-21.256,23.129-38.413c0.512-7.536,0.689-12.633,0.689-15.955
		c0.186-7.324,5.636-13.278,12.695-14.082c8.57-0.813,11.821-2.942,15.257-23.588c2.986-14.171,4.824-27.617-1.422-32.661
		c-0.265-0.221-0.53-0.451-0.769-0.698c-1.528-1.573-3.825-2.2-5.919-1.67c-2.65,0.654-5.442,0.071-7.589-1.599
		c-2.147-1.67-3.41-4.249-3.41-6.97v-27.308c-0.194-51.621-25.726-74.652-82.78-74.652c-57.124,0-82.603,22.943-82.603,74.387
		v27.387c0,2.739-1.272,5.327-3.445,6.997c-2.173,1.679-5,2.253-7.642,1.546c-2.129-0.548-4.355,0.097-5.84,1.696
		c-0.309,0.336-0.645,0.645-1.007,0.928c-6.122,4.841-5.513,16.123-2.518,32.759c3.728,20.62,5.177,22.837,15.505,23.765
		c7.492,0.618,13.181,7.041,12.898,14.612c-0.336,5.159-0.336,10.151-0.009,15.072c1.095,17.236,7.951,23.845,22.996,38.307
		C208.68,320.74,213.548,325.422,218.902,330.988z M166.866,266.151c0.018,0,0.035,0,0.053,0.009
		C166.911,266.151,166.893,266.151,166.866,266.151z"/>
	<circle style="fill:#333333;" cx="214.388" cy="226.254" r="8.835"/>
	<circle style="fill:#333333;" cx="297.786" cy="226.254" r="8.835"/>
	<path style="fill:#333333;" d="M274.64,304.175h-35.338c-2.438,0-4.417-1.979-4.417-4.417c0-2.438,1.979-4.417,4.417-4.417h35.338
		c2.438,0,4.417,1.979,4.417,4.417C279.057,302.196,277.087,304.175,274.64,304.175z"/>
	<path style="fill:#333333;" d="M263.155,318.487H251.67c-2.438,0-4.417-1.979-4.417-4.417s1.979-4.417,4.417-4.417h11.485
		c2.438,0,4.417,1.979,4.417,4.417S265.593,318.487,263.155,318.487z"/>
	<path style="fill:#333333;" d="M257.032,281.824c-3.172,0-6.387-0.521-9.444-1.573l-9.444-2.562
		c-2.359-0.636-3.746-3.074-3.101-5.424s3.083-3.719,5.424-3.101l9.718,2.65c4.479,1.537,9.117,1.52,13.305,0.088l9.992-2.739
		c2.394-0.618,4.788,0.76,5.424,3.101c0.636,2.359-0.751,4.788-3.101,5.424l-9.727,2.65
		C263.225,281.329,260.142,281.824,257.032,281.824z"/>
	<path style="fill:#333333;" d="M249.867,512c-75.315,0-148.748-15.107-218.223-44.924c-3.737-1.608-5.893-5.548-5.23-9.559
		l5.124-30.921c2.783-16.75,15.142-30.585,31.478-35.241c0.362-0.106,0.724-0.186,1.095-0.23l116.352-17.669
		c7.819-1.157,13.694-7.951,13.694-15.823v-31.186h17.669v31.186c0,16.565-12.36,30.877-28.748,33.298L67.362,408.494
		c-9.559,2.924-16.742,11.114-18.394,20.991l-3.984,24.039c67.169,27.838,138.014,41.434,210.917,40.772
		c72.885,0.698,143.898-12.987,211.094-40.763l-4.055-24.11c-1.634-9.877-8.79-18.058-18.305-21.009l-115.751-17.581
		c-16.477-2.376-28.58-16.238-28.712-32.953v-31.442h17.669v31.363c0.062,7.854,5.796,14.427,13.632,15.549l116.422,17.687
		c0.371,0.053,0.751,0.141,1.113,0.239c16.291,4.682,28.598,18.517,31.363,35.232l5.212,30.983c0.671,4.02-1.484,7.978-5.239,9.586
		c-71.339,30.568-147.043,45.489-224.425,44.889C253.896,511.982,251.882,512,249.867,512z"/>
	<circle style="fill:#333333;" cx="255.645" cy="22.793" r="14.4"/>
	<path style="fill:#333333;" d="M255.645,45.586c-12.563,0-22.793-10.23-22.793-22.793S243.082,0,255.645,0
		c12.572,0,22.793,10.23,22.793,22.793S268.217,45.586,255.645,45.586z M255.645,16.786c-3.313,0-6.008,2.695-6.008,6.008
		s2.695,6.008,6.008,6.008c3.313,0,6.008-2.695,6.008-6.008S258.958,16.786,255.645,16.786z"/>
	<ellipse style="fill:#333333;" cx="255.645" cy="41.169" rx="25.179" ry="12.633"/>
	<path style="fill:#333333;" d="M255.645,62.196c-19.454,0-33.571-8.843-33.571-21.026s14.118-21.026,33.571-21.026
		c19.445,0,33.571,8.843,33.571,21.026S275.09,62.196,255.645,62.196z M239.319,41.169c1.882,1.634,7.562,4.232,16.326,4.232
		c8.764,0,14.445-2.597,16.326-4.232c-1.882-1.643-7.554-4.241-16.326-4.241C246.881,36.929,241.209,39.535,239.319,41.169z"/>
	<path style="fill:#333333;" d="M289.658,74.741h-67.222c-4.638,0-8.393-3.755-8.393-8.393c0-14.462,21.079-20.938,41.964-20.938
		c20.408,0,41.319,6.343,42.044,20.514c0.115,2.297-0.716,4.541-2.306,6.211C294.146,73.795,291.955,74.741,289.658,74.741z"/>
	<circle style="fill:#333333;" cx="176.487" cy="58.132" r="14.4"/>
	<path style="fill:#333333;" d="M176.487,80.925c-12.563,0-22.793-10.23-22.793-22.793s10.23-22.793,22.793-22.793
		c12.563,0,22.793,10.23,22.793,22.793S189.05,80.925,176.487,80.925z M176.487,52.124c-3.313,0-6.008,2.695-6.008,6.008
		c0,3.313,2.695,6.008,6.008,6.008c3.313,0,6.008-2.695,6.008-6.008C182.495,54.819,179.8,52.124,176.487,52.124z"/>
	
		<ellipse transform="matrix(-0.6 -0.8 0.8 -0.6 241.6655 266.5294)" style="fill:#333333;" cx="187.465" cy="72.848" rx="12.633" ry="25.179"/>
	<path style="fill:#333333;" d="M174.977,99.46c-6.025,0-11.114-2.129-14.365-6.467c-7.306-9.753-1.316-25.293,14.233-36.964l0,0
		c6.405-4.797,13.508-8.092,20.01-9.267c8.375-1.502,15.487,0.654,19.463,5.946c7.306,9.745,1.316,25.293-14.241,36.964
		C191.435,96.147,182.486,99.46,174.977,99.46z M174.402,82.639c2.571,0.23,8.605-1.148,15.602-6.405
		c7.006-5.257,9.983-10.743,10.504-13.181c-2.465-0.186-8.578,1.14-15.602,6.396l0,0C177.91,74.714,174.924,80.209,174.402,82.639z"
		/>
	<circle style="fill:#333333;" cx="129.045" cy="131.812" r="14.4"/>
	<path style="fill:#333333;" d="M129.045,154.605c-12.563,0-22.793-10.23-22.793-22.793c0-12.563,10.23-22.793,22.793-22.793
		c12.563,0,22.793,10.23,22.793,22.793S141.608,154.605,129.045,154.605z M129.045,125.805c-3.313,0-6.008,2.695-6.008,6.008
		c0,3.313,2.695,6.008,6.008,6.008s6.008-2.695,6.008-6.008C135.053,128.499,132.358,125.805,129.045,125.805z"/>
	
		<ellipse transform="matrix(-0.96 -0.28 0.28 -0.96 249.0891 309.3625)" style="fill:#333333;" cx="146.642" cy="136.889" rx="12.633" ry="25.179"/>
	<path style="fill:#333333;" d="M141.405,169.748c-1.405,0-2.801-0.194-4.17-0.592c-11.697-3.41-16.229-19.445-10.787-38.112l0,0
		c5.451-18.667,17.872-29.764,29.587-26.336c6.352,1.855,10.875,7.73,12.413,16.123c1.193,6.493,0.61,14.303-1.634,21.989
		c-2.235,7.686-5.946,14.577-10.451,19.418C151.821,167.142,146.538,169.748,141.405,169.748z M142.571,135.735
		c-2.456,8.411-1.546,14.595-0.495,16.856c2.094-1.352,6.184-6.078,8.64-14.48c2.456-8.419,1.546-14.595,0.504-16.856
		C149.109,122.598,145.027,127.324,142.571,135.735L142.571,135.735z"/>
	<circle style="fill:#333333;" cx="335.51" cy="58.132" r="14.4"/>
	<path style="fill:#333333;" d="M335.51,80.925c-12.572,0-22.793-10.23-22.793-22.793s10.222-22.793,22.793-22.793
		s22.793,10.23,22.793,22.793S348.082,80.925,335.51,80.925z M335.51,52.124c-3.313,0-6.008,2.695-6.008,6.008
		c0,3.313,2.695,6.008,6.008,6.008c3.313,0,6.008-2.695,6.008-6.008C341.517,54.819,338.823,52.124,335.51,52.124z"/>
	
		<ellipse transform="matrix(-0.8 -0.6 0.6 -0.8 540.5092 325.686)" style="fill:#333333;" cx="324.536" cy="72.758" rx="25.179" ry="12.633"/>
	<path style="fill:#333333;" d="M337.012,99.327c-1.626,0-3.322-0.159-5.08-0.477c-6.493-1.175-13.605-4.461-20.01-9.267
		c-6.396-4.806-11.547-10.708-14.498-16.618c-3.808-7.642-3.711-15.054,0.265-20.346l0,0c3.949-5.292,11.052-7.465,19.454-5.946
		c6.493,1.175,13.605,4.461,20.019,9.276c15.558,11.67,21.539,27.219,14.233,36.964C348.249,97.092,343.161,99.327,337.012,99.327z
		 M311.48,62.964c0.521,2.438,3.499,7.925,10.504,13.181c7.006,5.265,13.075,6.599,15.611,6.405
		c-0.53-2.438-3.507-7.925-10.513-13.19C320.076,64.121,313.927,62.743,311.48,62.964z M310.605,63.15L310.605,63.15L310.605,63.15
		L310.605,63.15z"/>
	<circle style="fill:#333333;" cx="382.978" cy="131.812" r="14.4"/>
	<path style="fill:#333333;" d="M382.952,154.605c-12.572,0-22.793-10.23-22.793-22.793c0-12.563,10.222-22.793,22.793-22.793
		c12.572,0,22.793,10.23,22.793,22.793S395.523,154.605,382.952,154.605z M382.952,125.805c-3.313,0-6.008,2.695-6.008,6.008
		c0,3.313,2.695,6.008,6.008,6.008c3.313,0,6.008-2.695,6.008-6.008C388.959,128.499,386.265,125.805,382.952,125.805z"/>
	
		<ellipse transform="matrix(-0.28 -0.96 0.96 -0.28 336.114 526.0081)" style="fill:#333333;" cx="365.31" cy="136.961" rx="25.179" ry="12.633"/>
	<path style="fill:#333333;" d="M370.398,169.819c-10.328,0-20.514-10.54-25.311-26.954c-5.442-18.676-0.91-34.702,10.787-38.112
		c6.361-1.846,13.331,0.663,19.145,6.917c4.497,4.841,8.207,11.741,10.451,19.427c5.442,18.676,0.91,34.702-10.796,38.112
		C373.26,169.615,371.829,169.819,370.398,169.819z M360.715,121.308c-1.051,2.262-1.961,8.446,0.495,16.856
		c2.456,8.411,6.546,13.128,8.649,14.48c1.042-2.262,1.952-8.437-0.504-16.856C366.899,127.377,362.809,122.651,360.715,121.308z"/>
	<path style="fill:#333333;" d="M249.867,512c-75.315,0-148.748-15.107-218.223-44.924c-3.728-1.608-5.893-5.539-5.23-9.55
		l5.124-31.186c2.792-16.768,15.151-30.603,31.478-35.241c0.371-0.106,0.742-0.186,1.122-0.239l109.107-16.167l2.589,17.484
		l-108.489,16.07c-9.541,2.933-16.733,11.114-18.376,20.982l-3.993,24.304c67.178,27.838,137.979,41.408,210.926,40.772
		c72.885,0.698,143.898-12.987,211.094-40.763l-4.055-24.11c-1.634-9.868-8.79-18.058-18.296-21.009l-108.586-16.256l2.624-17.484
		l109.196,16.344c0.38,0.062,0.76,0.15,1.131,0.247c16.291,4.682,28.598,18.517,31.363,35.232l5.212,30.983
		c0.671,4.02-1.484,7.978-5.239,9.586c-71.339,30.568-147.043,45.489-224.425,44.889C253.896,511.982,251.882,512,249.867,512z"/>
</g>
<path style="fill:#874A4F;" d="M471.651,427.771c-2.226-13.446-11.989-24.41-25.09-28.182l-95.59-14.224l-41.964-50.092v44.173
	c0,11.467-3.719,22.625-10.602,31.805l-15.902,21.203v69.882c66.922-2.226,132.846-16.936,194.361-43.378L471.651,427.771z"/>
<path style="fill:#6D3A40;" d="M395.673,454.275l-86.667-119.002v42.759c0.009,12.36-3.984,24.383-11.397,34.278l-15.107,34.455
	v55.57l18.376-50.181c0.663-1.679,2.35-2.73,4.152-2.562l87.021,10.867c2.12,0.256,4.055-1.237,4.329-3.357
	C396.548,456.104,396.292,455.079,395.673,454.275z"/>
<path style="fill:#874A4F;" d="M213.593,411.25c-6.882-9.179-10.602-20.337-10.602-31.805v-44.173l-41.876,50.269l-95.679,14.047
	c-13.137,3.737-22.935,14.71-25.179,28.182l-5.124,31.186c61.498,26.539,127.421,41.319,194.361,43.555v-70.058L213.593,411.25z"/>
<path style="fill:#6D3A40;" d="M116.324,454.275l86.667-119.002v42.759c-0.009,12.36,3.984,24.383,11.397,34.278l15.107,34.455
	v55.57l-18.376-50.181c-0.663-1.679-2.35-2.73-4.152-2.562l-87.021,10.867c-2.12,0.256-4.055-1.237-4.329-3.357
	C115.449,456.104,115.705,455.079,116.324,454.275z"/>
<g>
	<path style="fill:#333333;" d="M291.337,502.335h-17.669v-69.882c0-1.917,0.618-3.772,1.767-5.301l24.737-32.98v-58.9
		c0-3.808,2.43-7.183,6.043-8.375c3.622-1.228,7.571,0.035,9.859,3.083l79.511,106.015c2.217,2.951,2.368,6.979,0.353,10.089
		c-2.005,3.11-5.725,4.629-9.338,3.843l-79.511-17.669l3.834-17.254l56.197,12.492l-49.279-65.712v35.338
		c0,1.917-0.618,3.772-1.767,5.301l-24.737,32.98L291.337,502.335L291.337,502.335z"/>
	<path style="fill:#333333;" d="M238.329,502.335H220.66v-66.94l-24.737-32.98c-1.148-1.528-1.767-3.384-1.767-5.301v-35.338
		l-49.279,65.712l56.197-12.492l3.834,17.254l-79.511,17.669c-3.622,0.786-7.342-0.742-9.338-3.843
		c-2.005-3.11-1.864-7.138,0.362-10.089l79.511-106.015c2.288-3.048,6.255-4.294,9.859-3.083c3.604,1.202,6.043,4.576,6.043,8.375
		v58.9l24.737,32.98c1.148,1.528,1.767,3.384,1.767,5.301v69.89H238.329z"/>
	<path style="fill:#333333;" d="M282.502,511.17c-2.288,0-4.497-0.892-6.14-2.483c-1.714-1.661-2.695-3.958-2.695-6.352v-69.882
		c0-1.917,0.618-3.772,1.767-5.301l15.902-21.203c5.698-7.589,8.835-17.007,8.835-26.504v-44.173c0-3.719,2.324-7.032,5.813-8.296
		c3.481-1.29,7.412-0.212,9.789,2.624l39.809,47.521l92.277,13.738c0.38,0.062,0.76,0.141,1.14,0.247
		c16.282,4.673,28.589,18.508,31.363,35.224l5.212,31.168c0.671,4.011-1.484,7.969-5.23,9.577
		c-62.77,26.99-129.241,41.814-197.55,44.085C282.706,511.17,282.6,511.17,282.502,511.17z M291.337,435.395v57.725
		c60.588-3.048,119.612-16.353,175.667-39.588l-4.064-24.304c0-0.009,0-0.009,0-0.018c-1.634-9.851-8.782-18.023-18.296-20.973
		l-94.972-14.135c-2.129-0.318-4.082-1.405-5.469-3.066l-26.354-31.469v19.869c0,13.305-4.391,26.477-12.368,37.105L291.337,435.395
		z"/>
	<path style="fill:#333333;" d="M229.495,511.346c-0.097,0-0.194,0-0.292-0.009c-68.309-2.279-134.781-17.166-197.568-44.27
		c-3.728-1.608-5.875-5.539-5.221-9.541l5.124-31.186c2.792-16.768,15.151-30.603,31.478-35.241
		c0.371-0.106,0.751-0.186,1.131-0.239l92.339-13.561l39.72-47.671c2.376-2.871,6.308-3.905,9.789-2.659
		c3.498,1.272,5.831,4.594,5.831,8.305v44.173c0,9.497,3.136,18.915,8.835,26.495v0.009l15.902,21.203
		c1.14,1.528,1.767,3.384,1.767,5.301v70.058c0,2.394-0.972,4.682-2.695,6.352C233.983,510.454,231.783,511.346,229.495,511.346z
		 M44.975,453.542c56.064,23.341,115.079,36.69,175.685,39.756v-57.902l-14.135-18.844c-7.978-10.628-12.368-23.8-12.368-37.105
		v-19.763L167.9,391.187c-1.387,1.67-3.348,2.765-5.504,3.092l-95.051,13.967c-9.541,2.924-16.724,11.105-18.367,20.973
		L44.975,453.542z"/>
</g>
<path style="fill:#874A4F;" d="M202.991,378.032v-42.759l-88.346,106.015l114.85-8.835l-15.107-20.143
	C206.975,402.416,202.982,390.392,202.991,378.032z"/>
<path style="fill:#333333;" d="M114.645,450.122c-3.286,0-6.326-1.829-7.845-4.78c-1.626-3.154-1.21-6.979,1.069-9.718
	l88.346-106.015c2.377-2.862,6.308-3.896,9.789-2.65c3.498,1.272,5.831,4.594,5.831,8.305v42.759v0.009
	c-0.009,10.381,3.41,20.673,9.63,28.969l15.098,20.143c1.935,2.58,2.315,6.008,0.981,8.941c-1.334,2.942-4.161,4.921-7.368,5.168
	l-114.85,8.835C115.096,450.114,114.866,450.122,114.645,450.122z M194.156,359.674l-59.333,71.207l77.948-5.999l-5.451-7.271
	c-8.508-11.344-13.181-25.399-13.164-39.579V359.674z"/>
<path style="fill:#874A4F;" d="M309.006,378.032v-42.759l88.346,106.015l-114.85-8.835l15.107-20.143
	C305.022,402.416,309.015,390.392,309.006,378.032z"/>
<g>
	<path style="fill:#333333;" d="M397.352,450.122c-0.221,0-0.451-0.009-0.68-0.026l-114.85-8.835
		c-3.207-0.247-6.043-2.226-7.368-5.168c-1.325-2.933-0.945-6.361,0.981-8.941l15.107-20.143c6.211-8.296,9.639-18.588,9.63-28.969
		c0-0.009,0-0.009,0-0.009v-42.759c0-3.719,2.332-7.041,5.822-8.305c3.49-1.254,7.412-0.212,9.798,2.65l88.346,106.015
		c2.27,2.739,2.695,6.555,1.06,9.718C403.678,448.294,400.639,450.122,397.352,450.122z M299.226,424.882l77.948,5.999
		l-59.333-71.207v18.349c0.009,14.188-4.665,28.244-13.164,39.579L299.226,424.882z"/>
	<path style="fill:#333333;" d="M255.999,96.739c88.346,0,88.346,79.511,88.346,79.511v26.504
		c-0.574-9.639,2.589-19.136,8.835-26.504c0,0,8.835-114.85-97.181-114.85s-97.181,114.85-97.181,114.85
		c6.246,7.368,9.409,16.865,8.835,26.504V176.25C167.653,176.25,167.653,96.739,255.999,96.739z"/>
	<path style="fill:#333333;" d="M167.661,211.589c-0.088,0-0.177,0-0.265,0c-4.78-0.141-8.57-4.055-8.57-8.835v-4.232
		c-0.415-6.078-2.748-11.856-6.741-16.565c-1.202-1.422-1.926-3.18-2.067-5.036c-0.186-2.359-4.046-58.132,29.622-94.495
		c18.349-19.816,44.04-29.861,76.366-29.861c32.317,0,58.008,10.045,76.366,29.861c33.686,36.363,29.808,92.145,29.631,94.495
		c-0.15,1.855-0.875,3.613-2.067,5.036c-3.984,4.709-6.326,10.478-6.741,16.547v4.249c0,4.78-3.799,8.684-8.57,8.835
		c-4.788,0.115-8.799-3.525-9.082-8.296c-0.115-1.793-0.115-3.578-0.018-5.345V176.25c-0.018-2.862-1.316-70.677-79.511-70.677
		c-78.601,0-79.511,67.788-79.511,70.677v21.715c0.097,1.758,0.088,3.534-0.018,5.318
		C176.196,207.957,172.317,211.589,167.661,211.589z M255.999,70.235c-27.202,0-48.528,8.137-63.397,24.198
		c-9.073,9.789-14.904,21.521-18.632,32.98c13.005-20.434,37.158-39.517,82.029-39.517c44.783,0,68.936,19.003,81.95,39.385
		c-3.737-11.467-9.568-23.191-18.614-32.935C304.465,78.354,283.156,70.235,255.999,70.235z"/>
	<ellipse style="fill:#333333;" cx="255.999" cy="109.991" rx="53.008" ry="13.252"/>
	<path style="fill:#333333;" d="M255.999,129.471c-9.895,0-59.236-0.936-59.236-19.48s49.341-19.48,59.236-19.48
		s59.236,0.936,59.236,19.48S265.893,129.471,255.999,129.471z M210.562,109.991c5.204,2.924,20.867,7.024,45.436,7.024
		s40.233-4.099,45.445-7.024c-5.212-2.924-20.867-7.023-45.445-7.023S215.766,107.066,210.562,109.991z"/>
</g>
<g>
</g>
<g>
</g>
<g>
</g>
<g>
</g>
<g>
</g>
<g>
</g>
<g>
</g>
<g>
</g>
<g>
</g>
<g>
</g>
<g>
</g>
<g>
</g>
<g>
</g>
<g>
</g>
<g>
</g>
</svg>
