<?xml version="1.0" encoding="iso-8859-1"?>
<!-- Generator: Adobe Illustrator 19.0.0, SVG Export Plug-In . SVG Version: 6.00 Build 0)  -->
<svg version="1.1" id="Capa_1" xmlns="http://www.w3.org/2000/svg" xmlns:xlink="http://www.w3.org/1999/xlink" x="0px" y="0px"
	 viewBox="0 0 512.012 512.012" style="enable-background:new 0 0 512.012 512.012;" xml:space="preserve">
<g>
	<path style="fill:#333333;" d="M333.395,37.807c-11.234-10.348-27.067-14.09-41.748-9.846c0,0-34.068-24.123-88.615-3.348
		c-28.751,10.634-76.308,60.455-76.308,131.348c-0.315,20.391,2.777,40.694,9.157,60.062l31.508,91.766H344.62
		c0,0,19.692-57.206,40.665-112.935S355.844,55.53,333.395,37.807z"/>
	<path style="fill:#333333;" d="M344.62,317.634H167.389c-4.204,0-7.946-2.668-9.314-6.646l-31.508-91.776
		c-6.774-20.588-10.023-41.876-9.689-63.409c0-74.87,49.369-128.089,82.737-140.436c48.374-18.412,82.324-4.145,93.647,2.068
		c16.482-3.308,33.979,1.457,46.543,12.879c22.882,18.462,77.962,106.181,54.695,167.995
		c-20.677,54.951-40.369,112.108-40.566,112.67C352.565,314.966,348.824,317.634,344.62,317.634z M174.419,297.942h163.19
		c5.819-16.709,21.819-62.336,38.459-106.555c18.905-50.245-28.229-129.634-48.778-145.851c-0.197-0.158-0.384-0.315-0.571-0.482
		c-8.645-7.966-21.061-10.89-32.345-7.621c-2.875,0.827-5.967,0.305-8.418-1.428c-1.182-0.817-30.937-20.647-79.419-2.186
		c-24.458,9.039-69.967,54.114-69.967,122.142c-0.305,19.486,2.609,38.597,8.655,56.98L174.419,297.942z"/>
</g>
<path style="fill:#FBD3CA;" d="M496.349,412.158c-2.383-15.104-13.282-27.461-27.963-31.705l-129.674-19.692
	c-13.302-1.999-23.257-13.243-23.631-26.683v-44.505H196.927v44.505c-0.374,13.44-10.329,24.684-23.631,26.683L43.623,380.453
	c-14.641,4.165-25.561,16.394-28.062,31.409L9.85,446.619c77.726,33.369,161.566,50.137,246.154,49.231
	c84.588,0.906,168.428-15.862,246.154-49.231L496.349,412.158z"/>
<path style="fill:#E8BFBA;" d="M278.847,396.601c18.107,18.107,47.468,18.107,65.575,0c2.274-2.284,4.322-4.795,6.105-7.483
	c7.089-11.126,12.603-20.775,14.375-23.631c-14.671-2.166-49.231-1.575-49.231-29.538v-46.375H196.927v25.108L278.847,396.601z"/>
<g>
	<path style="fill:#333333;" d="M338.712,360.761l-4.037-0.985c-0.886,47.065-19.692,75.225-78.769,75.225
		s-77.785-28.16-78.769-75.225l-4.037,0.985l-26.289,3.84c-4.933,39.719-14.858,78.651-29.538,115.889
		c91.343,19.397,185.728,19.397,277.071,0c-14.769-37.209-24.694-76.15-29.538-115.889L338.712,360.761z"/>
	<path style="fill:#333333;" d="M255.807,502.516c-46.799,0-93.598-4.943-140.071-14.809c-2.127-0.453-3.938-1.812-4.972-3.722
		s-1.162-4.185-0.364-6.213c14.434-36.638,24.222-75.018,29.086-114.097c0.414-3.298,2.974-5.918,6.262-6.39l29.657-4.687
		c2.166-0.551,4.47-0.049,6.242,1.319s2.836,3.466,2.875,5.701c1.004,48.286,21.691,67.988,71.385,67.988
		c49.802,0,70.479-19.692,71.385-67.968c0.049-2.245,1.093-4.342,2.875-5.711c1.772-1.369,4.066-1.861,6.252-1.329l3.712,0.896
		l25.748,3.791c3.289,0.492,5.849,3.111,6.252,6.41c4.766,39.109,14.562,77.489,29.076,114.068c0.798,2.018,0.67,4.293-0.354,6.213
		c-1.024,1.91-2.846,3.279-4.972,3.732C349.405,497.573,302.616,502.516,255.807,502.516z M127.285,475.006
		c85.337,16.985,171.697,16.985,257.024,0c-12.593-33.506-21.366-68.401-26.122-103.926l-16.522-2.432
		c-3.673,50.255-31.114,73.728-85.76,73.728c-54.558,0-81.999-23.493-85.74-73.758l-16.748,2.462
		C148.583,406.565,139.81,441.46,127.285,475.006z"/>
	<path style="fill:#333333;" d="M249.161,505.726c-83.948,0-165.79-16.837-243.2-50.068c-4.155-1.792-6.567-6.183-5.829-10.644
		l5.711-34.747c3.111-18.678,16.876-34.097,35.082-39.286c0.404-0.118,0.807-0.207,1.221-0.256l129.674-19.692
		c8.606-1.3,15.015-8.537,15.262-17.231v-34.383h19.692v34.668c-0.512,18.511-13.972,33.703-32.01,36.421L45.769,390.083
		c-10.654,3.269-18.668,12.386-20.5,23.394l-4.45,27.077c74.841,31.025,153.817,46.247,235.077,45.44
		c81.595,0.827,160.423-14.405,235.264-45.43l-4.519-26.782c-1.762-11.175-9.738-20.372-20.411-23.7l-128.994-19.594
		c-18.018-2.698-31.488-17.9-32-36.135v-34.944h19.692v34.668c0.236,8.409,6.656,15.655,15.252,16.945l129.694,19.702
		c0.423,0.059,0.847,0.158,1.26,0.266c18.255,5.287,31.98,20.844,34.944,39.621l5.799,34.363c0.748,4.48-1.654,8.891-5.829,10.683
		c-79.458,34.117-163.633,50.767-250.142,50.028C253.651,505.706,251.406,505.726,249.161,505.726z"/>
</g>
<path style="fill:#FBD3CA;" d="M256.004,38.299c78.769,0,103.385,45.194,103.385,98.462v19.692
	c17.034,0,22.449,16.837,19.692,39.385c-2.363,19.2-9.846,39.385-29.538,39.385v14.769c0,29.538-23.532,42.929-51.003,71.483
	c-10.309,12.623-26.358,19.082-42.535,17.132c-16.197,1.969-32.276-4.539-42.535-17.231c-27.471-28.554-51.003-41.945-51.003-71.483
	v-14.769c-19.692,0-27.175-20.185-29.538-39.385c-2.757-22.548,2.658-39.385,19.692-39.385v-19.692
	C152.62,83.493,177.235,38.299,256.004,38.299z"/>
<path style="fill:#F3CAC2;" d="M359.389,156.453v-19.692c0-53.268-24.222-98.462-103.385-98.462h-8.862l-6.203,22.745
	c-22.065,55.001-32.985,113.841-32.098,173.095c0,12.898,1.182,50.806,2.363,84.677l2.265,2.265
	c10.21,12.78,26.279,19.407,42.535,17.526c16.197,1.969,32.276-4.539,42.535-17.231c27.471-28.554,51.003-41.945,51.003-71.483
	v-14.769c19.692,0,27.175-20.185,29.538-39.385C381.838,173.684,376.423,156.453,359.389,156.453z"/>
<g>
	<path style="fill:#333333;" d="M250.796,346.267c-16.601,0-32.433-7.286-43.274-20.135c-6.046-6.282-12.081-11.963-17.92-17.447
		c-19.289-18.137-34.521-32.453-34.521-58.201v-8.212c-11.402-2.639-25.492-12.682-29.479-45.036
		c-2.166-17.674,0.492-31.301,7.67-39.404c3.21-3.623,7.266-6.105,11.963-7.345v-13.233c0-48.512,19.22-106.338,110.769-106.338
		c71.434,0,110.769,37.593,110.769,105.846v13.233c4.706,1.241,8.773,3.722,11.973,7.355c7.178,8.103,9.826,21.73,7.66,39.394
		c-3.978,32.354-18.078,42.398-29.479,45.036v8.212c0,25.57-15.242,39.759-34.53,57.738c-6.036,5.622-12.278,11.441-18.826,18.255
		c-11.175,14.041-29.076,21.671-47.557,20.037C254.271,346.178,252.528,346.267,250.796,346.267z M256.004,45.684
		c-63.705,0-96,30.809-96,91.569v19.692c0,4.076-3.308,7.385-7.385,7.385c-3.673,0-6.311,1.044-8.29,3.289
		c-4.165,4.716-5.652,14.848-4.066,27.815c1.851,14.996,7.198,32.896,22.203,32.896c4.076,0,7.385,3.308,7.385,7.385v14.769
		c0,19.367,11.884,30.533,29.863,47.439c5.701,5.356,12.16,11.431,18.786,18.343c9.275,10.978,22.902,16.561,36.716,14.986
		c0.512-0.049,1.024-0.069,1.526,0c13.755,1.388,27.097-4.194,35.722-14.986c7.266-7.611,13.952-13.844,19.86-19.348
		c17.959-16.738,29.824-27.796,29.824-46.937v-14.769c0-4.076,3.308-7.385,7.385-7.385c15.006,0,20.352-17.89,22.213-32.906
		c1.585-12.958,0.108-23.099-4.066-27.806c-1.989-2.245-4.628-3.289-8.3-3.289c-4.076,0-7.385-3.308-7.385-7.385v-19.692
		C352.004,76.325,319.709,45.684,256.004,45.684z"/>
	<path style="fill:#333333;" d="M276.681,285.241h-39.385c-2.718,0-4.923-2.206-4.923-4.923s2.206-4.923,4.923-4.923h39.385
		c2.718,0,4.923,2.206,4.923,4.923S279.399,285.241,276.681,285.241z"/>
	<path style="fill:#333333;" d="M263.881,301.191h-12.8c-2.718,0-4.923-2.206-4.923-4.923s2.206-4.923,4.923-4.923h12.8
		c2.718,0,4.923,2.206,4.923,4.923S266.599,301.191,263.881,301.191z"/>
	<path style="fill:#333333;" d="M257.058,260.133c-3.535,0-7.119-0.581-10.526-1.753l-10.526-2.855
		c-2.629-0.709-4.175-3.426-3.456-6.046c0.709-2.629,3.446-4.185,6.046-3.456l10.831,2.954c4.982,1.694,10.132,1.703,14.828,0.089
		l11.126-3.042c2.668-0.738,5.337,0.837,6.046,3.456c0.709,2.619-0.837,5.337-3.456,6.046l-10.831,2.954
		C263.96,259.572,260.533,260.133,257.058,260.133z"/>
	<path style="fill:#333333;" d="M172.312,177.13c22.646-11.225,64,1.969,72.172,9.846c15.36,15.36-9.846,36.628-37.612,36.628
		S149.666,188.453,172.312,177.13z"/>
	<path style="fill:#333333;" d="M339.007,177.13c-22.646-11.225-64,1.969-72.172,9.846c-15.262,15.36,9.846,36.628,37.612,36.628
		S361.653,188.453,339.007,177.13z"/>
	<rect x="235.82" y="189.438" style="fill:#333333;" width="39.385" height="9.846"/>
	<path style="fill:#333333;" d="M256.004,22.25c-88.615,0-118.154,64.689-118.154,103.483v14.868
		c0,33.871,24.911,40.566,24.911,66.56v-9.846c0-16.738,4.234-38.498,24.32-47.458c68.923-30.72,89.305-38.498,108.308-67.938
		c9.846,49.231,19.692,59.077,39.385,78.769c9.383,6.902,14.878,17.89,14.769,29.538v18.708c0-21.662,24.222-32.689,24.222-66.56
		v-16.64C374.158,86.939,344.62,22.151,256.004,22.25z"/>
	<path style="fill:#333333;" d="M349.543,213.856c-2.718,0-4.923-2.206-4.923-4.923v-18.708c0.098-10.082-4.677-19.623-12.761-25.57
		c-18.727-18.658-29.43-29.351-38.942-70.764c-17.31,21.986-39.266,31.754-92.396,55.365l-11.441,5.09
		c-17.694,7.897-21.406,27.717-21.406,42.959v9.846c0,2.718-2.206,4.923-4.923,4.923s-4.923-2.206-4.923-4.923
		c0-10.614-4.805-17.625-10.358-25.738c-6.814-9.954-14.553-21.238-14.553-40.822v-14.868c0-43.579,32.778-108.406,123.077-108.406
		l0,0c0.069,0,0.138,0,0.207,0c37.662,0,69.218,11.766,91.294,34.048c23.306,23.522,31.39,53.858,31.183,74.407v16.591
		c0,20.254-8.261,33.241-14.897,43.687c-4.982,7.877-9.314,14.69-9.314,22.882C354.466,211.65,352.27,213.856,349.543,213.856z
		 M295.389,76.994c0.305,0,0.62,0.03,0.926,0.089c1.959,0.374,3.505,1.9,3.899,3.87c9.561,47.774,18.481,56.694,38.036,76.258
		c8.261,6.006,13.962,15.527,15.675,26.033c0.512-0.817,1.034-1.644,1.556-2.462c6.567-10.329,13.351-21.012,13.351-38.4v-16.64
		c0.197-18.609-7.158-46.06-28.327-67.426c-20.519-20.706-48.719-30.986-84.51-31.134l0,0c-83.082,0-113.231,58.939-113.231,98.56
		v14.868c0,16.532,6.518,26.053,12.83,35.259c1.211,1.772,2.432,3.554,3.604,5.386c3.21-17.428,11.993-29.686,25.866-35.879
		l11.451-5.1c59.628-26.506,77.617-34.511,94.73-61.017C292.169,77.822,293.735,76.994,295.389,76.994z"/>
	<path style="fill:#333333;" d="M193.58,199.481c-0.906-7.129-0.571-14.356,0.985-21.366c2.215-7.168,6.095-13.716,11.323-19.102
		c4.854-5.14,10.24-9.758,16.049-13.785l16.049-11.815c10.535-7.877,21.858-14.769,30.917-23.04
		c8.517-9.797,16.414-20.126,23.631-30.917l0,0c1.359-1.26,3.466-1.26,4.825,0c1.191,1.073,1.506,2.806,0.788,4.234
		c-3.151,5.809-6.006,11.717-8.96,17.625c-3.072,6.439-6.902,12.495-11.422,18.018c-9.354,10.092-19.978,18.934-31.606,26.289
		c-5.612,3.742-11.422,7.188-17.034,10.732c-5.337,3.269-10.407,6.961-15.163,11.028c-4.549,3.732-8.162,8.497-10.535,13.883
		c-2.186,5.829-3.348,11.993-3.446,18.215c0,1.851-1.497,3.348-3.348,3.348s-3.348-1.497-3.348-3.348l0,0l0,0H193.58z"/>
</g>
<g>
</g>
<g>
</g>
<g>
</g>
<g>
</g>
<g>
</g>
<g>
</g>
<g>
</g>
<g>
</g>
<g>
</g>
<g>
</g>
<g>
</g>
<g>
</g>
<g>
</g>
<g>
</g>
<g>
</g>
</svg>
